<svg xmlns="http://www.w3.org/2000/svg" viewBox="0 0 400 300" fill="none">
  <rect width="400" height="300" fill="#F1F5F9" rx="16"/>
  <circle cx="200" cy="130" r="50" fill="#10B981" opacity="0.1"/>
  <rect x="130" y="85" width="140" height="110" rx="14" fill="#fff" stroke="#E2E8F0" stroke-width="1.5"/>
  <!-- Rocket / launch -->
  <path d="M200 100 C200 100 180 140 180 160 C180 172 188 180 200 180 C212 180 220 172 220 160 C220 140 200 100 200 100Z" fill="#0B6EFD" opacity="0.5"/>
  <circle cx="200" cy="148" r="8" fill="#fff"/>
  <rect x="188" y="178" width="6" height="14" rx="2" fill="#F59E0B" opacity="0.6"/>
  <rect x="198" y="182" width="6" height="10" rx="2" fill="#EF4444" opacity="0.5"/>
  <rect x="208" y="178" width="6" height="14" rx="2" fill="#F59E0B" opacity="0.6"/>
  <!-- Sparkles -->
  <circle cx="160" cy="110" r="4" fill="#7C3AED" opacity="0.4"/>
  <circle cx="240" cy="105" r="3" fill="#0B6EFD" opacity="0.4"/>
  <circle cx="250" cy="140" r="5" fill="#10B981" opacity="0.3"/>
  <!-- Chart -->
  <rect x="150" y="220" width="100" height="40" rx="8" fill="#fff" stroke="#E2E8F0" stroke-width="1"/>
  <polyline points="160,250 175,240 190,245 205,230 220,235 240,220" stroke="#10B981" stroke-width="2" fill="none" stroke-linecap="round"/>
</svg>
